nColumns=19
nRows=48
DataType=double
version=2
endheader
time	ground_force_1_vx	ground_force_1_vy	ground_force_1_vz	ground_force_1_px	ground_force_1_py	ground_force_1_pz	ground_moment_1_mx	ground_moment_1_my	ground_moment_1_mz	ground_force_2_vx	ground_force_2_vy	ground_force_2_vz	ground_force_2_px	ground_force_2_py	ground_force_2_pz	ground_moment_2_mx	ground_moment_2_my	ground_moment_2_mz
4.2	91.41091834650243	926.8908048722033	25.82024357301339	0.232271159550507	0.00511853313346122	0.1886000360653048	0.02750693914040066	3.28472762872921	0.01253016354220684	0	0	0	0.8952113342285156	0.002086591646075249	0.2021185622215271	0	0	0
4.201000000000001	91.74022831655978	927.7387700579638	25.71377856060717	0.2324320857124015	0.005116734515139295	0.1887182615895966	0.02760815503605719	3.296814275201673	0.01257627015258519	0	0	0	0.8952113342285156	0.002086591646075249	0.2021185622215271	0	0	0
4.202	92.06942320339388	928.5866752477552	25.60729308983297	0.2325930080566854	0.005114935930509735	0.188836486662221	0.02770930551111018	3.308893109504893	0.0126223469620883	0	0	0	0.8952113342285156	0.002086591646075249	0.2021185622215271	0	0	0
4.203	92.39861046126522	929.4345805012409	25.5008076693706	0.232753934221709	0.00511313731034268	0.1889547126633362	0.02781045394176931	3.320971699677823	0.01266842284031406	0	0	0	0.8952113342285156	0.002086591646075249	0.2021185622215271	0	0	0
4.204	92.72780534809932	930.2824856910321	25.3943221985964	0.2329148641980849	0.005111338660173517	0.1890729381624721	0.0279116044168223	3.333050533981043	0.01271449964981717	0	0	0	0.8952113342285156	0.002086591646075249	0.2021185622215271	0	0	0
4.205	93.05699260597066	931.1303909445179	25.28783677813404	0.2330757903568501	0.00510954004369672	0.1891911632099407	0.02801275284748143	3.345129124153973	0.01276057552804293	0	0	0	0.8952113342285156	0.002086591646075249	0.2021185622215271	0	0	0
4.206	94.35505671258819	931.9709563152007	25.28254987830609	0.2333405829539654	0.005106928558191734	0.1892944647137251	0.02832836228293083	3.382817469891636	0.01290434426295957	0	0	0	0.8952113342285156	0.002086591646075249	0.2021185622215271	0	0	0
4.207	95.65331168095803	932.8115200123361	25.27728270090846	0.2336053946047125	0.005104316924521341	0.1893977632307899	0.02864401465065132	3.420510942365367	0.01304813255470059	0	0	0	0.8952113342285156	0.002086591646075249	0.2021185622215271	0	0	0
4.208	96.95156613822938	933.6520226768993	25.2720152906915	0.2338702100668118	0.005101705260848841	0.1895010612458756	0.02895966292958408	3.458203926578519	0.01319191898388692	0	0	0	0.8952113342285156	0.002086591646075249	0.2021185622215271	0	0	0
4.209000000000001	98.24981347763645	934.4925864377291	25.26674816360571	0.234135021717559	0.005099093627178447	0.1896043597629405	0.02927531529730457	3.49589739905225	0.01333570727562794	0	0	0	0.8952113342285156	0.002086591646075249	0.2021185622215271	0	0	0
4.21	99.54834403576211	935.333269951291	25.26146819686113	0.2343998907419853	0.005096481423543019	0.1897076817438326	0.02959102081926543	3.533597218913491	0.01347951978058009	0	0	0	0.8952113342285156	0.002086591646075249	0.2021185622215271	0	0	0
4.211	100.4108629655532	935.791180166958	24.93475933184401	0.2345989027020087	0.005094454566137901	0.1898021310015397	0.02949041006419171	3.521582835006538	0.01343368882829769	0	0	0	0.8952113342285156	0.002086591646075249	0.2021185622215271	0	0	0
4.212	101.2733737677997	936.249029406367	24.60805219161266	0.2347979146620321	0.005092427708732783	0.1898965802592467	0.02938979930911798	3.509568451099584	0.01338785787601528	0	0	0	0.8952113342285156	0.002086591646075249	0.2021185622215271	0	0	0
4.213	102.1358921864924	936.7068785894618	24.28134309377621	0.2349969266236202	0.0050904008504051	0.1899910297553654	0.02928918650965039	3.497553823062343	0.01334202599245553	0	0	0	0.8952113342285156	0.002086591646075249	0.2021185622215271	0	0	0
4.214	102.9984034998374	937.1647888614428	23.9546361863642	0.2351959385852082	0.005088373992077417	0.1900854792514841	0.02918857575457667	3.485539439155389	0.01329619504017312	0	0	0	0.8952113342285156	0.002086591646075249	0.2021185622215271	0	0	0
4.215	103.8609067732546	937.622638105502	23.62794435479096	0.2353949467307502	0.005086347166519537	0.1901799285343471	0.02908799362101699	3.47352847307248	0.01325037712577363	0	0	0	0.8952113342285156	0.002086591646075249	0.2021185622215271	0	0	0
4.216	104.4050475997756	938.2701073548127	23.73448507184461	0.2355143430752404	0.005085020361344393	0.1902656389587674	0.02968688244740041	3.545044488159362	0.01352318737557576	0	0	0	0.8952113342285156	0.002086591646075249	0.2021185622215271	0	0	0
4.217000000000001	104.9491802862352	938.9175156352455	23.84102560639075	0.2356337432357766	0.005083693523399446	0.1903513495964435	0.03028577536257156	3.616560991506822	0.01379599948793259	0	0	0	0.8952113342285156	0.002086591646075249	0.2021185622215271	0	0	0
4.218	105.4933206016577	939.5649238519841	23.94756609062507	0.2357531395787022	0.005082366719146868	0.1904370597824521	0.03088466418895498	3.688077006593704	0.01406880973773472	0	0	0	0.8952113342285156	0.002086591646075249	0.2021185622215271	0	0	0
4.219	106.0374609170801	940.2123320687225	24.05410657485938	0.2358725359231924	0.005081039913971724	0.1905227702068724	0.03148355505973227	3.759593265810875	0.0143416209188142	0	0	0	0.8952113342285156	0.002086591646075249	0.2021185622215271	0	0	0
4.22	106.5814627137426	940.8596194701443	24.16062079696202	0.2359919054270648	0.005079713413835505	0.1906084595887464	0.03208229668975771	3.831091703516957	0.01461436411664704	0	0	0	0.8952113342285156	0.002086591646075249	0.2021185622215271	0	0	0
4.221	107.878406637937	941.2238690202948	24.58386182876965	0.2361914807020885	0.005077678132521229	0.1907038805157923	0.03235441369021152	3.863586421488857	0.01473832085719521	0	0	0	0.8952113342285156	0.002086591646075249	0.2021185622215271	0	0	0
4.222	109.1755030808886	941.5880559982853	25.0071702840795	0.2363910750636004	0.005075642683667682	0.1907993034627637	0.03262645913688019	3.896072594900646	0.01486224500303609	0	0	0	0.8952113342285156	0.002086591646075249	0.2021185622215271	0	0	0
4.223	110.472607152803	941.9522429125813	25.43047868907752	0.2365906732380291	0.005073607203889465	0.1908947261461675	0.0328985086723366	3.928559256573013	0.01498617101143167	0	0	0	0.8952113342285156	0.002086591646075249	0.2021185622215271	0	0	0
4.224	111.7697041068531	942.3164909231438	25.85378737720671	0.2367902637850596	0.005071571786883157	0.1909901491182947	0.03317055411900528	3.961045429984802	0.01511009515727255	0	0	0	0.8952113342285156	0.002086591646075249	0.2021185622215271	0	0	0
4.225	113.0668081787675	942.6806778374397	26.27709578220473	0.2369898581465715	0.005069536338029612	0.1910855720652661	0.03344259956567395	3.993531603396591	0.01523401930311344	0	0	0	0.8952113342285156	0.002086591646075249	0.2021185622215271	0	0	0
4.226	113.6008334718185	942.5255124033483	25.84277391219843	0.237149041776749	0.005068011302523529	0.191135904355987	0.03377477676897164	4.033198380995388	0.01538533510968385	0	0	0	0.8952113342285156	0.002086591646075249	0.2021185622215271	0	0	0
4.227	114.1347045104644	942.3702878969626	25.40827543733409	0.2373082138993344	0.005066486400384312	0.1911862269472975	0.03410696214984477	4.072866135115341	0.01553665464136366	0	0	0	0.8952113342285156	0.002086591646075249	0.2021185622215271	0	0	0
4.228	114.6685750254951	942.2150023653851	24.97377482235713	0.2374673860219197	0.005064961498245095	0.1912365495386081	0.03443915161950562	4.112534377495871	0.01568797603559818	0	0	0	0.8952113342285156	0.002086591646075249	0.2021185622215271	0	0	0
4.229	115.2024460516243	942.0597778663798	24.53927444019951	0.2376265581460697	0.005063436595183313	0.1912868723683303	0.03477133700037875	4.152202131615823	0.01583929556727799	0	0	0	0.8952113342285156	0.002086591646075249	0.2021185622215271	0	0	0
4.23	115.7364456832544	941.9044915915001	24.1046852344304	0.2377857723108732	0.005061911293828557	0.1913372073187438	0.03510359189064315	4.191878186165598	0.01599064676238775	0	0	0	0.8952113342285156	0.002086591646075249	0.2021185622215271	0	0	0
4.231	116.7026184319124	941.5514616051311	24.20456953041964	0.2379444998027244	0.005060273833189647	0.1914180127080676	0.03493933302149976	4.172263293974753	0.01591582235233183	0	0	0	0.8952113342285156	0.002086591646075249	0.2021185622215271	0	0	0
4.232	117.6687835516077	941.1984316824565	24.30445387672072	0.2381032234800942	0.005058636404397976	0.1914988181225473	0.03477507415235637	4.152648401783908	0.01584099794227591	0	0	0	0.8952113342285156	0.002086591646075249	0.2021185622215271	0	0	0
4.233	118.6349486838197	940.8454017524015	24.40434013031507	0.2382619509719455	0.005056998943759068	0.1915796235118712	0.03461081937200071	4.133033997853639	0.01576617539477469	0	0	0	0.8952113342285156	0.002086591646075249	0.2021185622215271	0	0	0
4.234	119.6011138035149	940.4923718297269	24.50422447661615	0.2384206784653613	0.005055361482197595	0.1916604291396066	0.03444655641406959	4.113418617402216	0.01569134912216406	0	0	0	0.8952113342285156	0.002086591646075249	0.2021185622215271	0	0	0
4.235	120.5672789357269	940.139341899672	24.6041107302105	0.2385794021411665	0.005053724054328489	0.1917412343156747	0.03428230981128937	4.093805189993104	0.01561653029977225	0	0	0	0.8952113342285156	0.002086591646075249	0.2021185622215271	0	0	0
4.236	121.2093888622994	939.553981430641	24.81283077104366	0.2387554851657687	0.005052021725194477	0.1918009448290903	0.03465225923556002	4.137982518809362	0.0157850523866826	0	0	0	0.8952113342285156	0.002086591646075249	0.2021185622215271	0	0	0
4.237	121.8515058942195	938.9685598727239	25.02154862145237	0.2389315720064169	0.005050319363290664	0.1918606555557617	0.03502221683740611	4.182160824146774	0.01595357819870237	0	0	0	0.8952113342285156	0.002086591646075249	0.2021185622215271	0	0	0
4.238	122.4936158082753	938.3831994110734	25.23026675499224	0.2391076512165377	0.00504861706600389	0.1919203660943333	0.03539216626167676	4.226338152963032	0.01612210028561272	0	0	0	0.8952113342285156	0.002086591646075249	0.2021185622215271	0	0	0
4.239	123.1357333638106	937.7978388783479	25.43898674551357	0.2392837380564035	0.005046914704561358	0.1919800767017989	0.03576211977473513	4.270515970039866	0.01629062423507778	0	0	0	0.8952113342285156	0.002086591646075249	0.2021185622215271	0	0	0
4.24	123.7776913703411	937.212601962386	25.64765294671682	0.2394597752094426	0.005045212815254491	0.1920397726163568	0.03613198333446361	4.31468304538399	0.01645910720833938	0	0	0	0.8952113342285156	0.002086591646075249	0.2021185622215271	0	0	0
4.241	125.1702835139758	936.4039117634968	25.74301566854743	0.2395924985085446	0.005043695407468426	0.1921461925815501	0.03611424208453921	4.312564482737036	0.01645102558348606	0	0	0	0.8952113342285156	0.002086591646075249	0.2021185622215271	0	0	0
4.242	126.5630580789012	935.5951590993147	25.83835215526206	0.2397252180635715	0.005042177990014182	0.1922526233004241	0.03609641497007264	4.310435666617949	0.01644290484498399	0	0	0	0.8952113342285156	0.002086591646075249	0.2021185622215271	0	0	0
4.243	127.9558255259622	934.7864675313995	25.93368892510787	0.239857933804117	0.005040660604407174	0.192359054044454	0.03607858376681836	4.308306362238285	0.01643478224392721	0	0	0	0.8952113342285156	0.002086591646075249	0.2021185622215271	0	0	0
4.244	129.3486000908876	933.9777148672175	26.0290254118225	0.2399906457301812	0.005039143250647404	0.1924654848136398	0.0360607566523518	4.306177546119198	0.01642666150542513	0	0	0	0.8952113342285156	0.002086591646075249	0.2021185622215271	0	0	0
4.245	130.7413670268502	933.16896226673	26.12436194884897	0.2401233652852081	0.00503762583319316	0.1925719155325138	0.03604292544909752	4.304048241739532	0.01641853890436836	0	0	0	0.8952113342285156	0.002086591646075249	0.2021185622215271	0	0	0
4.246	131.4824931427912	931.9649979060181	25.79213333415858	0.2402167571869015	0.005036607705490064	0.1926337939618921	0.03663669920204111	4.374953442843622	0.0166890190982379	0	0	0	0.8952113342285156	0.002086591646075249	0.2021185622215271	0	0	0
4.247	132.2234655300278	930.7609741630298	25.45980822092803	0.2403101413915728	0.00503558968161301	0.1926956620706751	0.03723061197376724	4.445875244807355	0.01695956261896731	0	0	0	0.8952113342285156	0.002086591646075249	0.2021185622215271	0	0	0
